<svg width="278" height="231" viewBox="0 0 278 231" fill="none" xmlns="http://www.w3.org/2000/svg">
<g filter="url(#filter0_dd_43892_10748)">
<rect x="28.6279" y="15.3231" width="216.902" height="169.69" rx="18" fill="white"/>
<rect x="28.6279" y="15.3231" width="216.902" height="169.69" rx="18" fill="url(#paint0_radial_43892_10748)" fill-opacity="0.06"/>
<rect x="29.3779" y="16.0731" width="215.402" height="168.19" rx="17.25" stroke="url(#paint1_linear_43892_10748)" stroke-width="1.5"/>
<g clip-path="url(#clip0_43892_10748)">
<path d="M52.1338 38.6688L52.9209 37.8817L53.6572 38.0087C53.7334 38.3134 53.7842 38.618 53.7842 38.9481C53.7842 40.9794 52.1338 42.6044 50.1279 42.6044C48.0967 42.6044 46.4717 40.9794 46.4717 38.9481C46.4717 36.9423 48.0967 35.2919 50.1279 35.2919C50.458 35.2919 50.7627 35.3427 51.0674 35.4188L51.1943 36.1552L50.4072 36.9423C50.3057 36.9423 50.2041 36.9169 50.1279 36.9169C48.9854 36.9169 48.0967 37.8309 48.0967 38.9481C48.0967 40.0907 48.9854 40.9794 50.1279 40.9794C51.2451 40.9794 52.1592 40.0907 52.1592 38.9481C52.1592 38.8719 52.1338 38.7704 52.1338 38.6688ZM54.9268 38.1356L55.1553 37.9071L56.2471 36.8153C56.501 37.4755 56.6279 38.2118 56.6279 38.9481C56.6279 42.5536 53.708 45.4481 50.1279 45.4481C46.5225 45.4481 43.6279 42.5536 43.6279 38.9481C43.6279 35.368 46.5225 32.4481 50.1279 32.4481C50.8643 32.4481 51.6006 32.5751 52.2607 32.829L51.1689 33.9208L50.9404 34.1493C50.6611 34.0985 50.3818 34.0731 50.1279 34.0731C47.4365 34.0731 45.2529 36.2567 45.2529 38.9481C45.2529 41.6395 47.4365 43.8231 50.1279 43.8231C52.8193 43.8231 55.0029 41.6395 55.0029 38.9481C55.0029 38.6688 54.9775 38.4149 54.9268 38.1356ZM52.8955 37.0438L50.5342 39.3798C50.3057 39.6337 49.9248 39.6337 49.6963 39.3798C49.4424 39.1512 49.4424 38.7704 49.6963 38.5165L52.0322 36.1805L51.8037 34.911C51.7783 34.6571 51.8545 34.3778 52.0322 34.2001L53.3271 32.9052C53.5557 32.6766 53.8857 32.7528 54.0127 33.0321L54.5967 34.4794L56.0439 35.0634C56.3232 35.1903 56.3994 35.5204 56.1709 35.7489L54.876 37.0438C54.6982 37.2216 54.4443 37.2977 54.165 37.2723L52.8955 37.0438Z" fill="#CACBCE"/>
<path d="M67.2788 44.4989C65.1694 44.4989 63.7632 43.62 63.353 42.4188C63.2871 42.243 63.2505 42.0526 63.2505 41.8768C63.2505 41.3495 63.5874 41.0126 64.0854 41.0126C64.5029 41.0126 64.7666 41.181 64.9717 41.6058C65.3013 42.5214 66.2095 42.9315 67.3374 42.9315C68.6118 42.9315 69.5054 42.3016 69.5054 41.4227C69.5054 40.661 68.978 40.1923 67.6011 39.9066L66.4658 39.6722C64.3491 39.2401 63.3604 38.244 63.3604 36.6986C63.3604 34.8383 64.9937 33.5785 67.2861 33.5785C69.1538 33.5785 70.604 34.4135 71.0361 35.8124C71.0801 35.9296 71.1021 36.0687 71.1021 36.2445C71.1021 36.7059 70.7725 37.0209 70.2817 37.0209C69.8423 37.0209 69.5713 36.8304 69.3735 36.4203C69.0146 35.5267 68.2603 35.1459 67.2715 35.1459C66.0996 35.1459 65.2646 35.7025 65.2646 36.5887C65.2646 37.3065 65.792 37.7679 67.1104 38.0463L68.2456 38.2806C70.4722 38.7421 71.4097 39.6356 71.4097 41.203C71.4097 43.2245 69.8203 44.4989 67.2788 44.4989ZM73.4528 42.4042V37.9657H72.9621C72.508 37.9657 72.2297 37.6947 72.2297 37.2552C72.2297 36.8231 72.508 36.5594 72.9621 36.5594H73.4528V35.5267C73.4528 34.9408 73.8044 34.5746 74.3684 34.5746C74.925 34.5746 75.2766 34.9408 75.2766 35.5267V36.5594H76.1188C76.5729 36.5594 76.8513 36.8231 76.8513 37.2552C76.8513 37.6947 76.5729 37.9657 76.1188 37.9657H75.2766V42.0087C75.2766 42.5946 75.4816 42.851 76.009 42.8949L76.1408 42.9095C76.6242 42.9535 76.8732 43.1586 76.8732 43.5834C76.8732 44.118 76.4045 44.4037 75.5695 44.4037H75.4963C74.1413 44.4037 73.4528 43.7299 73.4528 42.4042ZM79.1947 44.4696C78.6454 44.4696 78.2865 44.1107 78.2865 43.5101V37.3285C78.2865 36.7572 78.6381 36.4056 79.1581 36.4056C79.6635 36.4056 80.0224 36.7572 80.0224 37.3285V37.9218H80.059C80.2714 37.0135 80.9452 36.4276 81.7216 36.4276C82.0072 36.4276 82.227 36.5009 82.3661 36.6254C82.5346 36.7645 82.6225 36.9843 82.6225 37.2845C82.6225 37.5702 82.5346 37.7826 82.3515 37.9291C82.1757 38.0829 81.9047 38.1635 81.5458 38.1708C80.5058 38.1781 80.1103 38.83 80.1103 39.7748V43.5101C80.1103 44.1107 79.744 44.4696 79.1947 44.4696ZM85.8448 44.4476C84.3434 44.4476 83.252 43.5028 83.252 42.1039C83.252 40.7269 84.3141 39.8993 86.2037 39.7821L88.2618 39.6649V39.1083C88.2618 38.2953 87.7125 37.8265 86.8116 37.8265C86.1012 37.8265 85.6397 38.0682 85.1856 38.7347C84.9952 38.9838 84.7535 39.101 84.4459 39.101C83.9991 39.101 83.6769 38.808 83.6769 38.3685C83.6769 38.2001 83.7208 38.0389 83.8014 37.8705C84.1969 36.9696 85.398 36.3983 86.8849 36.3983C88.8111 36.3983 90.0636 37.4164 90.0636 38.9764V43.5541C90.0636 44.14 89.69 44.4696 89.1773 44.4696C88.6793 44.4696 88.3351 44.1693 88.3058 43.6273V43.0853H88.2691C87.8224 43.9276 86.8482 44.4476 85.8448 44.4476ZM86.4015 43.0707C87.4269 43.0707 88.2618 42.3822 88.2618 41.4447V40.8514L86.4601 40.9613C85.5812 41.0199 85.0758 41.4154 85.0758 42.0306C85.0758 42.6678 85.6104 43.0707 86.4015 43.0707ZM92.7879 35.4681C92.2239 35.4681 91.7771 35.0287 91.7771 34.4794C91.7771 33.9227 92.2239 33.4906 92.7879 33.4906C93.3592 33.4906 93.806 33.9227 93.806 34.4794C93.806 35.0287 93.3592 35.4681 92.7879 35.4681ZM92.7879 44.4696C92.2312 44.4696 91.8797 44.1034 91.8797 43.5101V37.3651C91.8797 36.7792 92.2312 36.4056 92.7879 36.4056C93.3445 36.4056 93.7034 36.7792 93.7034 37.3724V43.5101C93.7034 44.1034 93.3445 44.4696 92.7879 44.4696ZM96.4424 44.4696C95.9077 44.4696 95.5342 44.1254 95.5342 43.5101V37.3285C95.5342 36.7645 95.8638 36.4056 96.4058 36.4056C96.9404 36.4056 97.3066 36.7645 97.3066 37.3285V37.8705H97.3433C97.7607 36.9476 98.5664 36.413 99.7603 36.413C101.474 36.413 102.448 37.5116 102.448 39.306V43.5101C102.448 44.1254 102.075 44.4696 101.54 44.4696C101.005 44.4696 100.625 44.1254 100.625 43.5101V39.6722C100.625 38.5736 100.112 37.9584 99.0718 37.9584C98.0244 37.9584 97.3579 38.7128 97.3579 39.826V43.5101C97.3579 44.1254 96.977 44.4696 96.4424 44.4696ZM108.644 44.4476C108.058 44.4476 107.699 44.0887 107.699 43.4662V34.7357C107.699 34.1205 108.058 33.7543 108.644 33.7543H111.808C113.91 33.7543 115.368 35.1825 115.368 37.2919C115.368 39.4012 113.866 40.8295 111.727 40.8295H109.589V43.4662C109.589 44.0887 109.237 44.4476 108.644 44.4476ZM109.589 39.306H111.303C112.658 39.306 113.449 38.5736 113.449 37.2919C113.449 36.0248 112.665 35.2997 111.31 35.2997H109.589V39.306ZM120.025 44.4769C117.652 44.4769 116.254 42.9901 116.254 40.4706C116.254 37.995 117.682 36.3983 119.923 36.3983C122.047 36.3983 123.497 37.9071 123.497 40.0165C123.497 40.5585 123.19 40.8807 122.648 40.8807H118.07V40.9393C118.07 42.2357 118.824 43.0707 120.011 43.0707C120.831 43.0707 121.366 42.785 121.952 42.038C122.142 41.8256 122.311 41.745 122.567 41.745C122.977 41.745 123.299 42.0087 123.299 42.4481C123.299 42.5873 123.255 42.7484 123.175 42.9095C122.662 43.8983 121.505 44.4769 120.025 44.4769ZM118.085 39.6796H121.71C121.673 38.5516 120.956 37.8119 119.93 37.8119C118.905 37.8119 118.158 38.5663 118.085 39.6796ZM125.885 44.4696C125.335 44.4696 124.976 44.1107 124.976 43.5101V37.3285C124.976 36.7572 125.328 36.4056 125.848 36.4056C126.353 36.4056 126.712 36.7572 126.712 37.3285V37.9218H126.749C126.961 37.0135 127.635 36.4276 128.411 36.4276C128.697 36.4276 128.917 36.5009 129.056 36.6254C129.224 36.7645 129.312 36.9843 129.312 37.2845C129.312 37.5702 129.224 37.7826 129.041 37.9291C128.866 38.0829 128.595 38.1635 128.236 38.1708C127.196 38.1781 126.8 38.83 126.8 39.7748V43.5101C126.8 44.1107 126.434 44.4696 125.885 44.4696ZM131.883 44.4696C131.333 44.4696 130.967 44.1327 130.967 43.5175V37.9657H130.484C130.074 37.9657 129.781 37.7167 129.781 37.2699C129.781 36.8451 130.074 36.5814 130.484 36.5814H130.967V35.8929C130.967 34.3768 131.707 33.681 133.106 33.6737C134.073 33.6737 134.505 33.9813 134.505 34.4354C134.505 34.7137 134.373 34.8822 134.102 34.9628C133.985 34.9921 133.86 35.0067 133.699 35.014C133.033 35.0287 132.762 35.3217 132.762 35.9735V36.5814H133.743C134.146 36.5814 134.439 36.8451 134.439 37.2699C134.439 37.7167 134.146 37.9657 133.743 37.9657H132.791V43.5175C132.791 44.1327 132.425 44.4696 131.883 44.4696ZM138.972 44.4769C136.695 44.4769 135.215 42.9608 135.215 40.4413C135.215 37.9364 136.709 36.3983 138.972 36.3983C141.236 36.3983 142.73 37.9291 142.73 40.4413C142.73 42.9608 141.25 44.4769 138.972 44.4769ZM138.972 43.0341C140.13 43.0341 140.877 42.0966 140.877 40.4413C140.877 38.7933 140.13 37.8485 138.972 37.8485C137.822 37.8485 137.068 38.7933 137.068 40.4413C137.068 42.0966 137.815 43.0341 138.972 43.0341ZM145.11 44.4696C144.56 44.4696 144.202 44.1107 144.202 43.5101V37.3285C144.202 36.7572 144.553 36.4056 145.073 36.4056C145.579 36.4056 145.937 36.7572 145.937 37.3285V37.9218H145.974C146.186 37.0135 146.86 36.4276 147.637 36.4276C147.922 36.4276 148.142 36.5009 148.281 36.6254C148.45 36.7645 148.537 36.9843 148.537 37.2845C148.537 37.5702 148.45 37.7826 148.266 37.9291C148.091 38.0829 147.82 38.1635 147.461 38.1708C146.421 38.1781 146.025 38.83 146.025 39.7748V43.5101C146.025 44.1107 145.659 44.4696 145.11 44.4696ZM150.566 44.4696C150.017 44.4696 149.658 44.118 149.658 43.5101V37.3358C149.658 36.7426 150.017 36.4056 150.529 36.4056C151.042 36.4056 151.408 36.7426 151.408 37.3358V37.9071H151.445C151.782 37.0062 152.602 36.413 153.657 36.413C154.755 36.413 155.539 36.9769 155.825 37.973H155.869C156.242 37.0135 157.165 36.413 158.286 36.413C159.816 36.413 160.82 37.4457 160.82 38.9984V43.5101C160.82 44.118 160.454 44.4696 159.912 44.4696C159.362 44.4696 158.996 44.118 158.996 43.5101V39.4452C158.996 38.493 158.498 37.951 157.605 37.951C156.726 37.951 156.125 38.5956 156.125 39.5258V43.5101C156.125 44.118 155.781 44.4696 155.239 44.4696C154.69 44.4696 154.353 44.118 154.353 43.5101V39.35C154.353 38.4857 153.825 37.951 152.976 37.951C152.097 37.951 151.482 38.6322 151.482 39.5697V43.5101C151.482 44.118 151.108 44.4696 150.566 44.4696ZM164.863 44.4476C163.361 44.4476 162.27 43.5028 162.27 42.1039C162.27 40.7269 163.332 39.8993 165.221 39.7821L167.28 39.6649V39.1083C167.28 38.2953 166.73 37.8265 165.829 37.8265C165.119 37.8265 164.658 38.0682 164.203 38.7347C164.013 38.9838 163.771 39.101 163.464 39.101C163.017 39.101 162.695 38.808 162.695 38.3685C162.695 38.2001 162.739 38.0389 162.819 37.8705C163.215 36.9696 164.416 36.3983 165.903 36.3983C167.829 36.3983 169.081 37.4164 169.081 38.9764V43.5541C169.081 44.14 168.708 44.4696 168.195 44.4696C167.697 44.4696 167.353 44.1693 167.324 43.6273V43.0853H167.287C166.84 43.9276 165.866 44.4476 164.863 44.4476ZM165.419 43.0707C166.445 43.0707 167.28 42.3822 167.28 41.4447V40.8514L165.478 40.9613C164.599 41.0199 164.094 41.4154 164.094 42.0306C164.094 42.6678 164.628 43.0707 165.419 43.0707ZM171.762 44.4696C171.227 44.4696 170.854 44.1254 170.854 43.5101V37.3285C170.854 36.7645 171.183 36.4056 171.725 36.4056C172.26 36.4056 172.626 36.7645 172.626 37.3285V37.8705H172.663C173.08 36.9476 173.886 36.413 175.08 36.413C176.793 36.413 177.768 37.5116 177.768 39.306V43.5101C177.768 44.1254 177.394 44.4696 176.859 44.4696C176.325 44.4696 175.944 44.1254 175.944 43.5101V39.6722C175.944 38.5736 175.431 37.9584 174.391 37.9584C173.344 37.9584 172.677 38.7128 172.677 39.826V43.5101C172.677 44.1254 172.296 44.4696 171.762 44.4696ZM182.946 44.4769C180.675 44.4769 179.21 42.9388 179.21 40.4486C179.21 37.973 180.668 36.3983 182.931 36.3983C184.454 36.3983 185.751 37.182 186.124 38.2733C186.183 38.4271 186.219 38.5809 186.219 38.7128C186.219 39.1669 185.875 39.4452 185.436 39.4452C185.07 39.4452 184.85 39.2914 184.637 38.9252C184.249 38.2147 183.737 37.8778 182.982 37.8778C181.81 37.8778 181.063 38.8519 181.063 40.4413C181.063 42.0526 181.818 43.0048 182.975 43.0048C183.78 43.0048 184.279 42.6312 184.63 42.0087C184.879 41.5985 185.077 41.4447 185.472 41.4447C185.904 41.4447 186.241 41.7377 186.241 42.1918C186.241 42.3309 186.205 42.4847 186.132 42.6605C185.699 43.7225 184.41 44.4769 182.946 44.4769ZM191.222 44.4769C188.849 44.4769 187.45 42.9901 187.45 40.4706C187.45 37.995 188.878 36.3983 191.119 36.3983C193.243 36.3983 194.693 37.9071 194.693 40.0165C194.693 40.5585 194.386 40.8807 193.844 40.8807H189.266V40.9393C189.266 42.2357 190.02 43.0707 191.207 43.0707C192.027 43.0707 192.562 42.785 193.148 42.038C193.338 41.8256 193.507 41.745 193.763 41.745C194.173 41.745 194.495 42.0087 194.495 42.4481C194.495 42.5873 194.452 42.7484 194.371 42.9095C193.858 43.8983 192.701 44.4769 191.222 44.4769ZM189.281 39.6796H192.906C192.87 38.5516 192.152 37.8119 191.126 37.8119C190.101 37.8119 189.354 38.5663 189.281 39.6796Z" fill="#8B8C8F"/>
<path d="M46.5779 71.7567C45.781 71.7567 45.1833 71.2645 45.1833 70.4559C45.1833 69.6473 45.781 69.1552 46.5779 69.1552H51.8747C52.6833 69.1552 53.2693 69.6473 53.2693 70.4559C53.2693 71.2645 52.6833 71.7567 51.8747 71.7567H46.5779ZM61.3782 77.5575C60.4993 77.5575 59.8899 76.9481 59.8899 76.0341V63.3427H59.8313L57.1008 65.2411C56.8079 65.452 56.5735 65.5341 56.2454 65.5341C55.6125 65.5341 55.1555 65.077 55.1555 64.4091C55.1555 63.9403 55.343 63.5887 55.8469 63.2372L59.3039 60.8114C60.0539 60.2841 60.5227 60.1786 61.1555 60.1786C62.2219 60.1786 62.8664 60.8231 62.8664 61.8661V76.0341C62.8664 76.9481 62.2571 77.5575 61.3782 77.5575ZM73.3894 77.663C70.4246 77.663 68.5027 76.4559 67.6238 74.7567C67.4011 74.3466 67.3074 73.9598 67.3074 73.5614C67.3074 72.7645 67.8113 72.2606 68.655 72.2606C69.2761 72.2606 69.6511 72.5302 69.9675 73.1512C70.5535 74.4286 71.573 75.1903 73.4246 75.1903C75.3464 75.1903 76.6472 74.0887 76.6472 72.5536C76.6589 70.7489 75.3464 69.7411 73.1785 69.7411H72.2175C71.4675 69.7411 71.0222 69.2841 71.0222 68.6161C71.0222 67.9481 71.4675 67.4911 72.2175 67.4911H73.1082C74.9714 67.4911 76.2136 66.4247 76.2136 64.9247C76.2136 63.4598 75.2527 62.4755 73.3777 62.4755C71.7839 62.4755 70.8582 63.1317 70.2957 64.4559C69.9675 65.1825 69.6394 65.452 68.9363 65.452C68.0925 65.452 67.6472 64.9598 67.6472 64.1864C67.6472 63.7645 67.7293 63.3895 67.9402 62.9794C68.7371 61.3036 70.6121 60.0731 73.366 60.0731C76.8699 60.0731 79.1199 61.9012 79.1199 64.5145C79.1199 66.6356 77.6082 68.0536 75.5691 68.4755V68.5341C78.0652 68.7684 79.7175 70.2684 79.7175 72.6239C79.7175 75.6239 77.0925 77.663 73.3894 77.663ZM85.3968 77.5184C84.928 77.5184 84.5374 77.2255 84.5374 76.7665C84.5374 76.5223 84.6057 76.3466 84.7327 76.161L89.0784 69.8524L93.3655 63.5731C93.6389 63.163 93.8538 63.0262 94.2444 63.0262C94.6936 63.0262 95.055 63.3485 95.055 63.788C95.055 64.0028 94.9964 64.1786 94.8596 64.3739L90.6507 70.5067L86.2171 77.0009C85.9632 77.3915 85.7483 77.5184 85.3968 77.5184ZM84.9475 70.4774C83.0725 70.4774 81.9202 69.0614 81.9202 66.7469C81.9202 64.4325 83.0921 63.0555 84.9475 63.0555C86.8128 63.0555 87.9846 64.4227 87.9846 66.7469C87.9846 69.0516 86.8225 70.4774 84.9475 70.4774ZM84.9475 69.0712C85.6995 69.0712 86.1487 68.2997 86.1487 66.7469C86.1487 65.204 85.6897 64.4618 84.9475 64.4618C84.2054 64.4618 83.7464 65.2137 83.7464 66.7567C83.7464 68.2997 84.2054 69.0712 84.9475 69.0712ZM94.6643 77.4989C92.7893 77.4989 91.637 76.0927 91.637 73.7782C91.637 71.454 92.8089 70.077 94.6643 70.077C96.5198 70.077 97.6917 71.4442 97.6917 73.7684C97.6917 76.0829 96.5393 77.4989 94.6643 77.4989ZM94.6643 76.0927C95.4065 76.0927 95.8655 75.3212 95.8655 73.7782C95.8655 72.2352 95.4065 71.4833 94.6643 71.4833C93.9221 71.4833 93.4632 72.2352 93.4632 73.7782C93.4632 75.3212 93.9221 76.0927 94.6643 76.0927Z" fill="#222326"/>
<path d="M47.6562 98.4476C47.0703 98.4476 46.748 98.162 46.5649 97.5028L44.2212 89.08C44.1553 88.8456 44.126 88.6478 44.126 88.4794C44.126 87.9594 44.4922 87.6298 45.0562 87.6298C45.5469 87.6298 45.8545 87.9008 45.9717 88.4208L47.7368 95.7596H47.7954L49.7363 88.5233C49.8975 87.8934 50.2051 87.6298 50.7617 87.6298C51.2964 87.6298 51.6113 87.9081 51.7725 88.5013L53.7134 95.7596H53.772L55.5371 88.4208C55.6543 87.8934 55.9619 87.6298 56.4526 87.6298C57.0166 87.6298 57.3828 87.9594 57.3828 88.4794C57.3828 88.6405 57.3535 88.8383 57.2876 89.08L54.9365 97.5101C54.7607 98.162 54.4385 98.4476 53.8599 98.4476C53.252 98.4476 52.9297 98.1766 52.7466 97.5101L50.791 90.6766H50.7178L48.7622 97.5101C48.5864 98.1693 48.2495 98.4476 47.6562 98.4476ZM59.8801 89.4681C59.3161 89.4681 58.8693 89.0287 58.8693 88.4794C58.8693 87.9227 59.3161 87.4906 59.8801 87.4906C60.4514 87.4906 60.8981 87.9227 60.8981 88.4794C60.8981 89.0287 60.4514 89.4681 59.8801 89.4681ZM59.8801 98.4696C59.3234 98.4696 58.9719 98.1034 58.9719 97.5101V91.3651C58.9719 90.7792 59.3234 90.4056 59.8801 90.4056C60.4367 90.4056 60.7956 90.7792 60.7956 91.3724V97.5101C60.7956 98.1034 60.4367 98.4696 59.8801 98.4696ZM63.1317 96.4042V91.9657H62.641C62.1869 91.9657 61.9086 91.6947 61.9086 91.2552C61.9086 90.8231 62.1869 90.5594 62.641 90.5594H63.1317V89.5267C63.1317 88.9408 63.4833 88.5746 64.0473 88.5746C64.6039 88.5746 64.9555 88.9408 64.9555 89.5267V90.5594H65.7978C66.2519 90.5594 66.5302 90.8231 66.5302 91.2552C66.5302 91.6947 66.2519 91.9657 65.7978 91.9657H64.9555V96.0087C64.9555 96.5946 65.1605 96.851 65.6879 96.8949L65.8197 96.9095C66.3031 96.9535 66.5521 97.1586 66.5521 97.5834C66.5521 98.118 66.0834 98.4037 65.2484 98.4037H65.1752C63.8202 98.4037 63.1317 97.7299 63.1317 96.4042ZM68.9322 98.4696C68.3976 98.4696 68.0167 98.1254 68.0167 97.5101V88.5453C68.0167 87.9667 68.3609 87.6078 68.9176 87.6078C69.4815 87.6078 69.8185 87.9667 69.8185 88.5453V91.8925H69.8551C70.2726 90.9476 71.1295 90.413 72.3087 90.413C74.0226 90.413 75.026 91.5409 75.026 93.3207V97.5101C75.026 98.1254 74.6451 98.4696 74.1104 98.4696C73.5758 98.4696 73.2022 98.1254 73.2022 97.5101V93.6942C73.2022 92.6102 72.6603 91.9584 71.6056 91.9584C70.5069 91.9584 69.8404 92.7201 69.8404 93.8627V97.5101C69.8404 98.1254 69.4669 98.4696 68.9322 98.4696ZM77.743 89.4681C77.179 89.4681 76.7322 89.0287 76.7322 88.4794C76.7322 87.9227 77.179 87.4906 77.743 87.4906C78.3143 87.4906 78.761 87.9227 78.761 88.4794C78.761 89.0287 78.3143 89.4681 77.743 89.4681ZM77.743 98.4696C77.1863 98.4696 76.8348 98.1034 76.8348 97.5101V91.3651C76.8348 90.7792 77.1863 90.4056 77.743 90.4056C78.2996 90.4056 78.6585 90.7792 78.6585 91.3724V97.5101C78.6585 98.1034 78.2996 98.4696 77.743 98.4696ZM81.3975 98.4696C80.8628 98.4696 80.4893 98.1254 80.4893 97.5101V91.3285C80.4893 90.7645 80.8188 90.4056 81.3608 90.4056C81.8955 90.4056 82.2617 90.7645 82.2617 91.3285V91.8705H82.2983C82.7158 90.9476 83.5215 90.413 84.7153 90.413C86.4292 90.413 87.4033 91.5116 87.4033 93.306V97.5101C87.4033 98.1254 87.0298 98.4696 86.4951 98.4696C85.9604 98.4696 85.5796 98.1254 85.5796 97.5101V93.6722C85.5796 92.5736 85.0669 91.9584 84.0269 91.9584C82.9795 91.9584 82.313 92.7128 82.313 93.826V97.5101C82.313 98.1254 81.9321 98.4696 81.3975 98.4696ZM92.9765 96.4042V91.9657H92.4857C92.0316 91.9657 91.7533 91.6947 91.7533 91.2552C91.7533 90.8231 92.0316 90.5594 92.4857 90.5594H92.9765V89.5267C92.9765 88.9408 93.328 88.5746 93.892 88.5746C94.4486 88.5746 94.8002 88.9408 94.8002 89.5267V90.5594H95.6425C96.0966 90.5594 96.3749 90.8231 96.3749 91.2552C96.3749 91.6947 96.0966 91.9657 95.6425 91.9657H94.8002V96.0087C94.8002 96.5946 95.0053 96.851 95.5326 96.8949L95.6644 96.9095C96.1478 96.9535 96.3969 97.1586 96.3969 97.5834C96.3969 98.118 95.9281 98.4037 95.0932 98.4037H95.0199C93.6649 98.4037 92.9765 97.7299 92.9765 96.4042ZM99.9854 98.4476C98.484 98.4476 97.3927 97.5028 97.3927 96.1039C97.3927 94.7269 98.4547 93.8993 100.344 93.7821L102.402 93.6649V93.1083C102.402 92.2953 101.853 91.8265 100.952 91.8265C100.242 91.8265 99.7804 92.0682 99.3263 92.7347C99.1358 92.9838 98.8941 93.101 98.5865 93.101C98.1397 93.101 97.8175 92.808 97.8175 92.3685C97.8175 92.2001 97.8614 92.0389 97.942 91.8705C98.3375 90.9696 99.5387 90.3983 101.025 90.3983C102.952 90.3983 104.204 91.4164 104.204 92.9764V97.5541C104.204 98.14 103.831 98.4696 103.318 98.4696C102.82 98.4696 102.476 98.1693 102.446 97.6273V97.0853H102.41C101.963 97.9276 100.989 98.4476 99.9854 98.4476ZM100.542 97.0707C101.567 97.0707 102.402 96.3822 102.402 95.4447V94.8514L100.601 94.9613C99.7218 95.0199 99.2164 95.4154 99.2164 96.0306C99.2164 96.6678 99.7511 97.0707 100.542 97.0707ZM106.885 98.4696C106.335 98.4696 105.976 98.1107 105.976 97.5101V91.3285C105.976 90.7572 106.328 90.4056 106.848 90.4056C107.353 90.4056 107.712 90.7572 107.712 91.3285V91.9218H107.749C107.961 91.0135 108.635 90.4276 109.411 90.4276C109.697 90.4276 109.917 90.5009 110.056 90.6254C110.224 90.7645 110.312 90.9843 110.312 91.2845C110.312 91.5702 110.224 91.7826 110.041 91.9291C109.866 92.0829 109.595 92.1635 109.236 92.1708C108.196 92.1781 107.8 92.83 107.8 93.7748V97.5101C107.8 98.1107 107.434 98.4696 106.885 98.4696ZM114.487 101.245C113 101.238 111.857 100.667 111.337 99.8319C111.228 99.6488 111.184 99.473 111.184 99.2826C111.184 98.8798 111.484 98.5795 111.945 98.5795C112.202 98.5795 112.385 98.6674 112.612 98.8871C113.22 99.495 113.762 99.788 114.501 99.7953C115.739 99.8099 116.479 99.1141 116.479 98.0814V96.8436H116.442C116.04 97.6786 115.124 98.2426 114.011 98.2426C112.062 98.2426 110.817 96.7338 110.817 94.3461C110.817 91.9144 112.048 90.4276 114.047 90.4276C115.153 90.4276 116.01 90.9989 116.457 91.8778H116.486V91.3358C116.486 90.7352 116.882 90.4056 117.402 90.4056C117.929 90.4056 118.31 90.7352 118.31 91.3358V98.0741C118.31 100.03 116.882 101.26 114.487 101.245ZM114.567 96.8217C115.732 96.8217 116.494 95.8768 116.494 94.3607C116.494 92.8519 115.732 91.8705 114.567 91.8705C113.417 91.8705 112.685 92.8373 112.685 94.3607C112.685 95.8988 113.417 96.8217 114.567 96.8217ZM123.547 98.4769C121.174 98.4769 119.775 96.9901 119.775 94.4706C119.775 91.995 121.203 90.3983 123.444 90.3983C125.568 90.3983 127.018 91.9071 127.018 94.0165C127.018 94.5585 126.711 94.8807 126.169 94.8807H121.591V94.9393C121.591 96.2357 122.345 97.0707 123.532 97.0707C124.352 97.0707 124.887 96.785 125.473 96.038C125.663 95.8256 125.832 95.745 126.088 95.745C126.498 95.745 126.821 96.0087 126.821 96.4481C126.821 96.5873 126.777 96.7484 126.696 96.9095C126.183 97.8983 125.026 98.4769 123.547 98.4769ZM121.606 93.6796H125.231C125.195 92.5516 124.477 91.8119 123.451 91.8119C122.426 91.8119 121.679 92.5663 121.606 93.6796ZM129.003 96.4042V91.9657H128.512C128.058 91.9657 127.78 91.6947 127.78 91.2552C127.78 90.8231 128.058 90.5594 128.512 90.5594H129.003V89.5267C129.003 88.9408 129.354 88.5746 129.918 88.5746C130.475 88.5746 130.827 88.9408 130.827 89.5267V90.5594H131.669C132.123 90.5594 132.401 90.8231 132.401 91.2552C132.401 91.6947 132.123 91.9657 131.669 91.9657H130.827V96.0087C130.827 96.5946 131.032 96.851 131.559 96.8949L131.691 96.9095C132.174 96.9535 132.423 97.1586 132.423 97.5834C132.423 98.118 131.954 98.4037 131.12 98.4037H131.046C129.691 98.4037 129.003 97.7299 129.003 96.4042Z" fill="#62C58C"/>
</g>
<path d="M172.911 159.315V140.53L175.423 140.369L193.744 143.406L191.38 155.55L184.879 144.741L179.56 163.322L172.911 159.315Z" fill="url(#paint2_linear_43892_10748)"/>
<path d="M53.3534 143.405L44.1932 143.77L43.9238 144.013V150.935L53.6228 154.092L58.2028 152.028L65.7464 154.092L70.3265 151.421L71.6736 139.762H61.4358L53.3534 143.405Z" fill="url(#paint3_linear_43892_10748)"/>
<path d="M54.4551 123.482L43.6279 122.153V144.013L54.4551 143.409L63.4777 139.786H73.4026L84.2297 141.597H103.747V124.569H82.7259L73.4026 126.38H63.4777L54.4551 123.482Z" fill="#FF7A7F" fill-opacity="0.14"/>
<path d="M132.651 123.482H124.489L122.684 123.26V142.757L124.489 142.443L132.651 143.409L141.974 140.752L153.102 144.013L160.59 143.074V122.896L153.102 122.153L141.974 124.569L132.651 123.482Z" fill="#FF7A7F" fill-opacity="0.14"/>
<path d="M181.073 122.153L174.694 125.535L172.889 125.061L172.889 141.346L176.498 140.752L181.073 144.013H193.403L197.915 143.277V122.903L191.298 122.153H181.073Z" fill="#FF7A7F" fill-opacity="0.14"/>
<path d="M229.795 122.878L218.614 122.153L216.81 122.343V143.023L221.073 143.409H229.795V122.878Z" fill="#FF7A7F" fill-opacity="0.14"/>
<path d="M229.874 140.066L223.268 124.636L216.662 123.538L210.657 137.325L204.051 142.449L197.745 113.533L191.44 156.48L184.834 145.255L178.528 164.045L171.922 159.652L165.917 127.198L159.311 140.066L153.005 123.363L146.699 157.944L140.394 123.538L133.788 140.375L127.482 119.389L121.177 142.327L114.871 150.624L108.265 148.428L101.959 137.691L95.6536 130.37L89.0477 124.636L82.7421 144.035L76.4364 113.045L70.1307 151.844L63.5248 154.65L56.9189 152.332L50.9135 154.65L43.707 151.112" stroke="#BFC1C4" stroke-width="2" stroke-linejoin="round" stroke-dasharray="2 2"/>
<path d="M101.959 137.691L95.6536 130.37L89.0477 124.636L82.7421 144.035L76.4364 113.045L70.1307 151.844L63.5248 154.65L56.9189 152.332L50.9135 154.65L43.707 151.112M159.311 140.066L153.005 123.363L146.699 157.944L140.394 123.538L133.788 140.375L127.482 119.389L121.177 142.327M171.922 159.652L178.528 164.045L184.834 145.255L191.44 156.48L197.745 113.533M229.874 140.066L223.268 124.636L216.662 123.538" stroke="url(#paint4_linear_43892_10748)" stroke-width="3" stroke-linejoin="round"/>
<g filter="url(#filter1_d_43892_10748)">
<circle cx="228.095" cy="140.573" r="3.25" fill="#FF7277"/>
<circle cx="228.095" cy="140.573" r="4.25" stroke="white" stroke-width="2"/>
</g>
</g>
<defs>
<filter id="filter0_dd_43892_10748" x="0.62793" y="0.32312" width="276.902" height="229.69" filterUnits="userSpaceOnUse" color-interpolation-filters="sRGB">
<feFlood flood-opacity="0" result="BackgroundImageFix"/>
<feColorMatrix in="SourceAlpha" type="matrix" values="0 0 0 0 0 0 0 0 0 0 0 0 0 0 0 0 0 0 127 0" result="hardAlpha"/>
<feOffset dx="2" dy="15"/>
<feGaussianBlur stdDeviation="15"/>
<feComposite in2="hardAlpha" operator="out"/>
<feColorMatrix type="matrix" values="0 0 0 0 0 0 0 0 0 0 0 0 0 0 0 0 0 0 0.1 0"/>
<feBlend mode="normal" in2="BackgroundImageFix" result="effect1_dropShadow_43892_10748"/>
<feColorMatrix in="SourceAlpha" type="matrix" values="0 0 0 0 0 0 0 0 0 0 0 0 0 0 0 0 0 0 127 0" result="hardAlpha"/>
<feOffset dx="2" dy="6"/>
<feGaussianBlur stdDeviation="6"/>
<feComposite in2="hardAlpha" operator="out"/>
<feColorMatrix type="matrix" values="0 0 0 0 0 0 0 0 0 0 0 0 0 0 0 0 0 0 0.01 0"/>
<feBlend mode="normal" in2="effect1_dropShadow_43892_10748" result="effect2_dropShadow_43892_10748"/>
<feBlend mode="normal" in="BackgroundImageFix" in2="effect2_dropShadow_43892_10748" result="BackgroundImageFix"/>
<feBlend mode="normal" in="SourceGraphic" in2="BackgroundImageFix" result="shape"/>
</filter>
<filter id="filter1_d_43892_10748" x="216.913" y="129.392" width="22.3625" height="22.3625" filterUnits="userSpaceOnUse" color-interpolation-filters="sRGB">
<feFlood flood-opacity="0" result="BackgroundImageFix"/>
<feColorMatrix in="SourceAlpha" type="matrix" values="0 0 0 0 0 0 0 0 0 0 0 0 0 0 0 0 0 0 127 0" result="hardAlpha"/>
<feOffset/>
<feGaussianBlur stdDeviation="2.96563"/>
<feComposite in2="hardAlpha" operator="out"/>
<feColorMatrix type="matrix" values="0 0 0 0 1 0 0 0 0 0.447059 0 0 0 0 0.466667 0 0 0 1 0"/>
<feBlend mode="normal" in2="BackgroundImageFix" result="effect1_dropShadow_43892_10748"/>
<feBlend mode="normal" in="SourceGraphic" in2="effect1_dropShadow_43892_10748" result="shape"/>
</filter>
<radialGradient id="paint0_radial_43892_10748" cx="0" cy="0" r="1" gradientUnits="userSpaceOnUse" gradientTransform="translate(137.079 100.168) rotate(90) scale(84.8452 108.451)">
<stop stop-color="#F97E71"/>
<stop offset="0.95195" stop-color="#FEAE6C" stop-opacity="0"/>
</radialGradient>
<linearGradient id="paint1_linear_43892_10748" x1="222.766" y1="-5.76871" x2="104.356" y2="161.905" gradientUnits="userSpaceOnUse">
<stop stop-color="white" stop-opacity="0"/>
<stop offset="1" stop-color="white"/>
</linearGradient>
<linearGradient id="paint2_linear_43892_10748" x1="181.628" y1="140.369" x2="181.628" y2="163.322" gradientUnits="userSpaceOnUse">
<stop stop-color="#FFC7A8" stop-opacity="0"/>
<stop offset="1" stop-color="#FFC7A8" stop-opacity="0.3"/>
</linearGradient>
<linearGradient id="paint3_linear_43892_10748" x1="55.2393" y1="139.762" x2="55.2393" y2="154.092" gradientUnits="userSpaceOnUse">
<stop stop-color="#FFC7A8" stop-opacity="0"/>
<stop offset="1" stop-color="#FFC7A8" stop-opacity="0.3"/>
</linearGradient>
<linearGradient id="paint4_linear_43892_10748" x1="135.289" y1="112.923" x2="135.289" y2="165.87" gradientUnits="userSpaceOnUse">
<stop stop-color="#FFC7A8"/>
<stop offset="0.135933" stop-color="#FFC7A8"/>
<stop offset="0.234561" stop-color="#FF7A7F"/>
<stop offset="0.488552" stop-color="#FF7A7F"/>
<stop offset="0.605192" stop-color="#FFC7A8"/>
<stop offset="1" stop-color="#FFC7A8"/>
</linearGradient>
<clipPath id="clip0_43892_10748">
<rect width="174" height="75" fill="white" transform="translate(43.6279 27.3231)"/>
</clipPath>
</defs>
</svg>
