<svg width="105" height="105" viewBox="0 0 105 105" fill="none" xmlns="http://www.w3.org/2000/svg">
<g filter="url(#filter0_d_43892_10681)">
<rect x="18.3037" y="8.37366" width="67.82" height="67.82" rx="17" fill="white" shape-rendering="crispEdges"/>
<rect x="18.3037" y="8.37366" width="67.82" height="67.82" rx="17" fill="url(#paint0_radial_43892_10681)" fill-opacity="0.15" shape-rendering="crispEdges"/>
<rect x="19.5537" y="9.62366" width="65.32" height="65.32" rx="15.75" stroke="white" stroke-width="2.5" shape-rendering="crispEdges"/>
<g opacity="0.35" filter="url(#filter1_f_43892_10681)">
<g filter="url(#filter2_i_43892_10681)">
<path d="M51.7793 25.5554C60.5918 25.5556 67.7791 32.7433 67.7789 41.5558C67.7786 50.4308 60.5909 57.5556 51.7784 57.5554C42.9034 57.5551 35.7786 50.4299 35.7789 41.5549C35.779 37.1174 37.5916 33.055 40.5292 30.1801C41.3417 29.3676 42.5917 29.3676 43.4042 30.1802C44.1541 30.9927 44.1541 32.2427 43.3416 32.9927C41.154 35.1801 39.7789 38.2426 39.7789 41.5551C39.7787 48.1801 45.1535 53.5552 51.7785 53.5554C58.4035 53.5556 63.7787 48.1807 63.7789 41.5557C63.779 35.6182 59.4042 30.6806 53.7792 29.7429L53.7791 31.5554C53.7791 32.6804 52.8416 33.5554 51.7791 33.5554C50.6541 33.5554 49.7791 32.6803 49.7791 31.5553L49.7792 27.5553C49.7793 26.4928 50.6543 25.5554 51.7793 25.5554ZM47.8415 35.4928L52.8414 40.4929C53.4039 41.1179 53.4038 42.0554 52.8413 42.6179C52.2163 43.2429 51.2788 43.2429 50.7163 42.6179L45.7165 37.6177C45.0915 37.0552 45.0915 36.1177 45.7165 35.4927C46.279 34.9302 47.2165 34.9303 47.8415 35.4928Z" fill="url(#paint1_linear_43892_10681)"/>
</g>
</g>
<g filter="url(#filter3_i_43892_10681)">
<path d="M51.7793 25.5554C60.5918 25.5556 67.7791 32.7433 67.7789 41.5558C67.7786 50.4308 60.5909 57.5556 51.7784 57.5554C42.9034 57.5551 35.7786 50.4299 35.7789 41.5549C35.779 37.1174 37.5916 33.055 40.5292 30.1801C41.3417 29.3676 42.5917 29.3676 43.4042 30.1802C44.1541 30.9927 44.1541 32.2427 43.3416 32.9927C41.154 35.1801 39.7789 38.2426 39.7789 41.5551C39.7787 48.1801 45.1535 53.5552 51.7785 53.5554C58.4035 53.5556 63.7787 48.1807 63.7789 41.5557C63.779 35.6182 59.4042 30.6806 53.7792 29.7429L53.7791 31.5554C53.7791 32.6804 52.8416 33.5554 51.7791 33.5554C50.6541 33.5554 49.7791 32.6803 49.7791 31.5553L49.7792 27.5553C49.7793 26.4928 50.6543 25.5554 51.7793 25.5554ZM47.8415 35.4928L52.8414 40.4929C53.4039 41.1179 53.4038 42.0554 52.8413 42.6179C52.2163 43.2429 51.2788 43.2429 50.7163 42.6179L45.7165 37.6177C45.0915 37.0552 45.0915 36.1177 45.7165 35.4927C46.279 34.9302 47.2165 34.9303 47.8415 35.4928Z" fill="url(#paint2_linear_43892_10681)"/>
</g>
</g>
<defs>
<filter id="filter0_d_43892_10681" x="0.303711" y="0.373657" width="103.82" height="103.82" filterUnits="userSpaceOnUse" color-interpolation-filters="sRGB">
<feFlood flood-opacity="0" result="BackgroundImageFix"/>
<feColorMatrix in="SourceAlpha" type="matrix" values="0 0 0 0 0 0 0 0 0 0 0 0 0 0 0 0 0 0 127 0" result="hardAlpha"/>
<feOffset dy="10"/>
<feGaussianBlur stdDeviation="9"/>
<feComposite in2="hardAlpha" operator="out"/>
<feColorMatrix type="matrix" values="0 0 0 0 0 0 0 0 0 0 0 0 0 0 0 0 0 0 0.12 0"/>
<feBlend mode="normal" in2="BackgroundImageFix" result="effect1_dropShadow_43892_10681"/>
<feBlend mode="normal" in="BackgroundImageFix" in2="effect1_dropShadow_43892_10681" result="BackgroundImageFix"/>
<feBlend mode="normal" in="SourceGraphic" in2="BackgroundImageFix" result="shape"/>
</filter>
<filter id="filter1_f_43892_10681" x="27.7783" y="17.5549" width="48.001" height="48.0009" filterUnits="userSpaceOnUse" color-interpolation-filters="sRGB">
<feFlood flood-opacity="0" result="BackgroundImageFix"/>
<feBlend mode="normal" in="SourceGraphic" in2="BackgroundImageFix" result="shape"/>
<feGaussianBlur stdDeviation="4" result="effect1_foregroundBlur_43892_10681"/>
</filter>
<filter id="filter2_i_43892_10681" x="35.7783" y="25.5549" width="32.001" height="33.0009" filterUnits="userSpaceOnUse" color-interpolation-filters="sRGB">
<feFlood flood-opacity="0" result="BackgroundImageFix"/>
<feBlend mode="normal" in="SourceGraphic" in2="BackgroundImageFix" result="shape"/>
<feColorMatrix in="SourceAlpha" type="matrix" values="0 0 0 0 0 0 0 0 0 0 0 0 0 0 0 0 0 0 127 0" result="hardAlpha"/>
<feOffset dy="1"/>
<feGaussianBlur stdDeviation="1"/>
<feComposite in2="hardAlpha" operator="arithmetic" k2="-1" k3="1"/>
<feColorMatrix type="matrix" values="0 0 0 0 0 0 0 0 0 0 0 0 0 0 0 0 0 0 0.1 0"/>
<feBlend mode="normal" in2="shape" result="effect1_innerShadow_43892_10681"/>
</filter>
<filter id="filter3_i_43892_10681" x="35.7783" y="25.5549" width="32.001" height="33.0009" filterUnits="userSpaceOnUse" color-interpolation-filters="sRGB">
<feFlood flood-opacity="0" result="BackgroundImageFix"/>
<feBlend mode="normal" in="SourceGraphic" in2="BackgroundImageFix" result="shape"/>
<feColorMatrix in="SourceAlpha" type="matrix" values="0 0 0 0 0 0 0 0 0 0 0 0 0 0 0 0 0 0 127 0" result="hardAlpha"/>
<feOffset dy="1"/>
<feGaussianBlur stdDeviation="1"/>
<feComposite in2="hardAlpha" operator="arithmetic" k2="-1" k3="1"/>
<feColorMatrix type="matrix" values="0 0 0 0 0 0 0 0 0 0 0 0 0 0 0 0 0 0 0.1 0"/>
<feBlend mode="normal" in2="shape" result="effect1_innerShadow_43892_10681"/>
</filter>
<radialGradient id="paint0_radial_43892_10681" cx="0" cy="0" r="1" gradientUnits="userSpaceOnUse" gradientTransform="translate(52.2137 42.2837) rotate(90) scale(33.91)">
<stop stop-color="#F97E71"/>
<stop offset="0.95195" stop-color="#FEAE6C" stop-opacity="0"/>
</radialGradient>
<linearGradient id="paint1_linear_43892_10681" x1="52.8079" y1="29.7125" x2="31.1288" y2="90.9588" gradientUnits="userSpaceOnUse">
<stop stop-color="#F97E71"/>
<stop offset="1" stop-color="#FEAE6C"/>
</linearGradient>
<linearGradient id="paint2_linear_43892_10681" x1="52.8079" y1="29.7125" x2="31.1288" y2="90.9588" gradientUnits="userSpaceOnUse">
<stop stop-color="#F97E71"/>
<stop offset="1" stop-color="#FEAE6C"/>
</linearGradient>
</defs>
</svg>
