<svg width="241" height="218" viewBox="0 0 241 218" fill="none" xmlns="http://www.w3.org/2000/svg">
<g filter="url(#filter0_dd_43892_10725)">
<rect x="28.5859" y="15.957" width="180" height="157" rx="18" fill="white"/>
<rect x="28.5859" y="15.957" width="180" height="157" rx="18" fill="url(#paint0_radial_43892_10725)" fill-opacity="0.06"/>
<rect x="29.3359" y="16.707" width="178.5" height="155.5" rx="17.25" stroke="url(#paint1_linear_43892_10725)" stroke-width="1.5"/>
<g clip-path="url(#clip0_43892_10725)">
<path d="M50.8753 33.2054C51.2638 33.0449 51.695 33.0643 52.0675 33.2589L57.5074 36.0701C57.7058 36.1807 57.8489 36.3904 57.8386 36.6187C57.8273 36.8724 57.666 37.0685 57.4585 37.1608L51.7885 39.4733C51.4001 39.6338 50.9689 39.6145 50.5964 39.4198L45.1564 36.6086C44.958 36.4981 44.8403 36.2894 44.8517 36.0358C44.862 35.8075 44.9979 35.6103 45.2054 35.5179L50.8753 33.2054ZM56.0205 38.6212L57.3617 39.3168C57.5601 39.4274 57.7032 39.6372 57.6929 39.8654C57.6815 40.1191 57.5202 40.3152 57.3127 40.4075L51.6428 42.7201C51.2544 42.8806 50.8232 42.8612 50.4506 42.6666L45.0107 39.8554C44.8123 39.7448 44.6946 39.5362 44.706 39.2825C44.7162 39.0542 44.8522 38.857 45.0596 38.7647L46.4578 38.192L50.2336 40.1406C50.8045 40.4458 51.4893 40.4766 52.0853 40.2237L56.0205 38.6212ZM51.9395 43.4705L55.8747 41.868L57.216 42.5636C57.4143 42.6741 57.5574 42.8839 57.5472 43.1122C57.5358 43.3658 57.3745 43.5619 57.167 43.6543L51.4971 45.9668C51.1086 46.1273 50.6774 46.1079 50.3049 45.9133L44.865 43.1021C44.6666 42.9915 44.5489 42.7829 44.5603 42.5293C44.5705 42.301 44.7064 42.1037 44.9139 42.0114L46.3121 41.4387L50.0879 43.3874C50.6588 43.6926 51.3436 43.7233 51.9395 43.4705Z" fill="#CACBCE"/>
<path d="M70.6611 45.1328C67.6069 45.1328 65.7246 43.0601 65.7246 39.6689C65.7246 36.2998 67.6362 34.2124 70.6245 34.2124C72.5801 34.2124 74.1255 35.1279 74.8213 36.6733C74.9385 36.915 74.9971 37.1641 74.9971 37.3838C74.9971 37.8892 74.6675 38.2114 74.1621 38.2114C73.73 38.2114 73.4443 38.0063 73.2393 37.5449C72.7485 36.4097 71.7891 35.8164 70.6392 35.8164C68.8228 35.8164 67.6582 37.3105 67.6582 39.6689C67.6582 42.042 68.8154 43.5288 70.6465 43.5288C71.855 43.5288 72.7852 43.0015 73.2686 41.8882C73.459 41.4561 73.7007 41.2803 74.1108 41.2803C74.6309 41.2803 74.9897 41.6245 74.9897 42.1226C74.9897 42.3643 74.9312 42.584 74.814 42.833C74.1401 44.2686 72.6387 45.1328 70.6611 45.1328ZM78.9958 45.0815C77.4943 45.0815 76.403 44.1367 76.403 42.7378C76.403 41.3608 77.465 40.5332 79.3547 40.416L81.4128 40.2988V39.7422C81.4128 38.9292 80.8635 38.4604 79.9626 38.4604C79.2521 38.4604 78.7907 38.7021 78.3366 39.3687C78.1462 39.6177 77.9045 39.7349 77.5969 39.7349C77.1501 39.7349 76.8278 39.4419 76.8278 39.0024C76.8278 38.834 76.8718 38.6729 76.9523 38.5044C77.3479 37.6035 78.549 37.0322 80.0358 37.0322C81.9621 37.0322 83.2146 38.0503 83.2146 39.6104V44.188C83.2146 44.7739 82.841 45.1035 82.3283 45.1035C81.8303 45.1035 81.486 44.8032 81.4567 44.2612V43.7192H81.4201C80.9733 44.5615 79.9992 45.0815 78.9958 45.0815ZM79.5524 43.7046C80.5778 43.7046 81.4128 43.0161 81.4128 42.0786V41.4854L79.611 41.5952C78.7321 41.6538 78.2268 42.0493 78.2268 42.6646C78.2268 43.3018 78.7614 43.7046 79.5524 43.7046ZM85.8949 45.1035C85.3456 45.1035 84.9867 44.7446 84.9867 44.144V37.9624C84.9867 37.3911 85.3383 37.0396 85.8583 37.0396C86.3637 37.0396 86.7226 37.3911 86.7226 37.9624V38.5557H86.7592C86.9716 37.6475 87.6454 37.0615 88.4218 37.0615C88.7074 37.0615 88.9271 37.1348 89.0663 37.2593C89.2348 37.3984 89.3227 37.6182 89.3227 37.9185C89.3227 38.2041 89.2348 38.4165 89.0517 38.563C88.8759 38.7168 88.6049 38.7974 88.246 38.8047C87.206 38.812 86.8104 39.4639 86.8104 40.4087V44.144C86.8104 44.7446 86.4442 45.1035 85.8949 45.1035ZM93.0504 45.0815C91.0948 45.0815 89.8277 43.5361 89.8277 41.0679C89.8277 38.6143 91.0948 37.0615 93.0504 37.0615C94.1637 37.0615 95.0426 37.6401 95.4527 38.4971H95.4967V35.2012C95.4967 34.5859 95.8702 34.2417 96.4049 34.2417C96.9396 34.2417 97.3204 34.5859 97.3204 35.2012V44.188C97.3204 44.7739 96.9469 45.1035 96.4195 45.1035C95.8922 45.1035 95.4967 44.7812 95.4967 44.188V43.5801H95.4601C95.0865 44.4736 94.2516 45.0815 93.0504 45.0815ZM93.5997 43.5874C94.7496 43.5874 95.504 42.6133 95.504 41.0752C95.504 39.5518 94.7496 38.563 93.5997 38.563C92.4278 38.563 91.6954 39.5371 91.6954 41.0752C91.6954 42.6206 92.4205 43.5874 93.5997 43.5874ZM100.103 36.1021C99.5394 36.1021 99.0926 35.6626 99.0926 35.1133C99.0926 34.5566 99.5394 34.1245 100.103 34.1245C100.675 34.1245 101.121 34.5566 101.121 35.1133C101.121 35.6626 100.675 36.1021 100.103 36.1021ZM100.103 45.1035C99.5467 45.1035 99.1951 44.7373 99.1951 44.144V37.999C99.1951 37.4131 99.5467 37.0396 100.103 37.0396C100.66 37.0396 101.019 37.4131 101.019 38.0063V44.144C101.019 44.7373 100.66 45.1035 100.103 45.1035ZM106.285 45.1108C104.007 45.1108 102.527 43.5947 102.527 41.0752C102.527 38.5703 104.021 37.0322 106.285 37.0322C108.548 37.0322 110.042 38.563 110.042 41.0752C110.042 43.5947 108.562 45.1108 106.285 45.1108ZM106.285 43.668C107.442 43.668 108.189 42.7305 108.189 41.0752C108.189 39.4272 107.442 38.4824 106.285 38.4824C105.135 38.4824 104.38 39.4272 104.38 41.0752C104.38 42.7305 105.127 43.668 106.285 43.668ZM115.945 45.0815C115.359 45.0815 115 44.7227 115 44.1001V35.3696C115 34.7544 115.359 34.3882 115.945 34.3882H120.998C121.518 34.3882 121.863 34.6958 121.863 35.1865C121.863 35.6772 121.511 35.9849 120.998 35.9849H116.89V39.105H120.618C121.116 39.105 121.445 39.3979 121.445 39.874C121.445 40.3501 121.116 40.6431 120.618 40.6431H116.89V44.1001C116.89 44.7227 116.538 45.0815 115.945 45.0815ZM126.418 45.1108C124.14 45.1108 122.661 43.5947 122.661 41.0752C122.661 38.5703 124.155 37.0322 126.418 37.0322C128.681 37.0322 130.175 38.563 130.175 41.0752C130.175 43.5947 128.696 45.1108 126.418 45.1108ZM126.418 43.668C127.575 43.668 128.322 42.7305 128.322 41.0752C128.322 39.4272 127.575 38.4824 126.418 38.4824C125.268 38.4824 124.514 39.4272 124.514 41.0752C124.514 42.7305 125.261 43.668 126.418 43.668ZM135.06 45.1108C132.79 45.1108 131.325 43.5728 131.325 41.0825C131.325 38.6069 132.783 37.0322 135.046 37.0322C136.569 37.0322 137.866 37.8159 138.239 38.9072C138.298 39.061 138.334 39.2148 138.334 39.3467C138.334 39.8008 137.99 40.0791 137.551 40.0791C137.184 40.0791 136.965 39.9253 136.752 39.5591C136.364 38.8486 135.851 38.5117 135.097 38.5117C133.925 38.5117 133.178 39.4858 133.178 41.0752C133.178 42.6865 133.932 43.6387 135.09 43.6387C135.895 43.6387 136.393 43.2651 136.745 42.6426C136.994 42.2324 137.192 42.0786 137.587 42.0786C138.019 42.0786 138.356 42.3716 138.356 42.8257C138.356 42.9648 138.32 43.1187 138.246 43.2944C137.814 44.3564 136.525 45.1108 135.06 45.1108ZM142.604 45.0962C140.919 45.0962 139.85 44.0049 139.85 42.2104V37.999C139.85 37.3911 140.224 37.0396 140.758 37.0396C141.293 37.0396 141.674 37.3911 141.674 38.0063V41.8442C141.674 42.9575 142.216 43.5581 143.241 43.5581C144.296 43.5581 144.948 42.811 144.948 41.6831V37.999C144.948 37.3911 145.329 37.0396 145.863 37.0396C146.391 37.0396 146.771 37.3911 146.771 38.0063V44.1807C146.771 44.7666 146.42 45.1035 145.9 45.1035C145.373 45.1035 145.014 44.7666 145.014 44.1807V43.6094H144.977C144.567 44.5542 143.783 45.0962 142.604 45.0962ZM151.561 45.1108C149.921 45.1108 148.771 44.481 148.397 43.5508C148.346 43.4189 148.324 43.3018 148.324 43.1919C148.324 42.7524 148.646 42.4741 149.086 42.4741C149.386 42.4741 149.642 42.6133 149.877 42.9209C150.287 43.5142 150.756 43.7778 151.627 43.7778C152.477 43.7778 153.041 43.4189 153.041 42.833C153.041 42.3643 152.748 42.1079 151.949 41.9248L150.69 41.6392C149.174 41.2949 148.426 40.5479 148.426 39.4199C148.426 37.9771 149.672 37.0322 151.591 37.0322C153.085 37.0322 154.242 37.7646 154.484 38.6582C154.506 38.7534 154.52 38.8413 154.52 38.9292C154.52 39.3101 154.279 39.5811 153.817 39.5811C153.553 39.5811 153.29 39.4858 153.121 39.2441C152.762 38.7095 152.316 38.3726 151.547 38.3726C150.748 38.3726 150.199 38.7607 150.199 39.3174C150.199 39.7715 150.536 40.0791 151.342 40.2622L152.579 40.5332C154.22 40.9067 154.872 41.5 154.872 42.6499C154.872 44.1367 153.539 45.1108 151.561 45.1108Z" fill="#8B8C8F"/>
<path d="M46.6193 76.957C45.76 76.957 45.2336 76.4199 45.2336 75.5176V62.7129C45.2336 61.7998 45.76 61.2734 46.6193 61.2734C47.4895 61.2734 48.0051 61.7998 48.0051 62.7129V74.6152H53.9455C54.6975 74.6152 55.2131 75.0664 55.2131 75.7861C55.2131 76.5059 54.7082 76.957 53.9455 76.957H46.6193ZM62.0232 77.1826C58.6824 77.1826 56.5125 74.959 56.5125 71.2637C56.5125 67.5898 58.7039 65.334 62.0232 65.334C65.3425 65.334 67.5339 67.5791 67.5339 71.2637C67.5339 74.959 65.364 77.1826 62.0232 77.1826ZM62.0232 75.0664C63.7205 75.0664 64.8162 73.6914 64.8162 71.2637C64.8162 68.8467 63.7205 67.4609 62.0232 67.4609C60.3367 67.4609 59.2302 68.8467 59.2302 71.2637C59.2302 73.6914 60.3259 75.0664 62.0232 75.0664ZM73.2269 77.1719C72.3245 77.1719 71.8304 76.7529 71.5511 75.7969L69.0804 67.2891C68.9945 66.9561 68.9515 66.7305 68.9515 66.4941C68.9515 65.8174 69.4778 65.3447 70.2405 65.3447C70.9066 65.3447 71.3255 65.7314 71.4866 66.4727L73.3773 74.3145H73.431L75.4183 66.5693C75.6009 65.7744 76.1273 65.3447 76.9437 65.3447C77.7493 65.3447 78.265 65.7637 78.4476 66.5693L80.4456 74.3145H80.5101L82.4007 66.4619C82.5618 65.7207 82.97 65.3447 83.6253 65.3447C84.388 65.3447 84.9036 65.8066 84.9036 66.4834C84.9036 66.7197 84.8607 66.9453 84.764 67.2676L82.304 75.7969C82.0355 76.7314 81.5091 77.1719 80.6068 77.1719C79.6507 77.1719 79.1351 76.7637 78.888 75.7861L76.9329 68.6318H76.8792L74.9241 75.7969C74.6986 76.7314 74.1507 77.1719 73.2269 77.1719ZM92.6371 77.1396C91.7885 77.1396 91.2407 76.6455 91.2407 75.8613C91.2407 75.6465 91.2944 75.3457 91.4233 75.0127L95.9243 62.7773C96.3002 61.7461 96.9233 61.2734 97.933 61.2734C98.9536 61.2734 99.5766 61.7246 99.9633 62.7666L104.475 75.0127C104.604 75.3672 104.658 75.6143 104.658 75.8613C104.658 76.6133 104.078 77.1396 103.272 77.1396C102.52 77.1396 102.101 76.7959 101.854 75.9688L100.833 73.0039H95.0434L94.0229 75.9473C93.7651 76.7852 93.3569 77.1396 92.6371 77.1396ZM95.6987 70.8125H100.157L97.9545 64.1953H97.8793L95.6987 70.8125ZM111.543 77.1826C108.062 77.1826 106.011 75.002 106.011 71.3066C106.011 67.6758 108.105 65.334 111.393 65.334C114.508 65.334 116.635 67.5469 116.635 70.6406C116.635 71.4355 116.184 71.9082 115.389 71.9082H108.675V71.9941C108.675 73.8955 109.781 75.1201 111.521 75.1201C112.725 75.1201 113.509 74.7012 114.368 73.6055C114.647 73.2939 114.895 73.1758 115.271 73.1758C115.872 73.1758 116.345 73.5625 116.345 74.207C116.345 74.4111 116.28 74.6475 116.162 74.8838C115.41 76.334 113.713 77.1826 111.543 77.1826ZM108.696 70.1465H114.014C113.96 68.4922 112.907 67.4072 111.403 67.4072C109.899 67.4072 108.804 68.5137 108.696 70.1465ZM120.136 77.1719C119.331 77.1719 118.804 76.6455 118.804 75.7646V66.6982C118.804 65.8604 119.32 65.3447 120.083 65.3447C120.824 65.3447 121.35 65.8604 121.35 66.6982V67.5684H121.404C121.715 66.2363 122.704 65.377 123.842 65.377C124.261 65.377 124.584 65.4844 124.788 65.667C125.035 65.8711 125.164 66.1934 125.164 66.6338C125.164 67.0527 125.035 67.3643 124.766 67.5791C124.508 67.8047 124.111 67.9229 123.585 67.9336C122.059 67.9443 121.479 68.9004 121.479 70.2861V75.7646C121.479 76.6455 120.942 77.1719 120.136 77.1719ZM131.415 77.1826C128.074 77.1826 125.904 74.959 125.904 71.2637C125.904 67.5898 128.096 65.334 131.415 65.334C134.734 65.334 136.926 67.5791 136.926 71.2637C136.926 74.959 134.756 77.1826 131.415 77.1826ZM131.415 75.0664C133.112 75.0664 134.208 73.6914 134.208 71.2637C134.208 68.8467 133.112 67.4609 131.415 67.4609C129.729 67.4609 128.622 68.8467 128.622 71.2637C128.622 73.6914 129.718 75.0664 131.415 75.0664ZM140.46 77.1719C139.686 77.1719 139.16 76.6992 139.16 75.8291V62.6484C139.16 61.7461 139.718 61.2412 140.503 61.2412C141.287 61.2412 141.835 61.7461 141.835 62.6484V67.5254H141.899C142.554 66.1934 143.843 65.377 145.465 65.377C148.334 65.377 150.16 67.6221 150.16 71.2637C150.16 74.9053 148.344 77.1396 145.455 77.1396C143.79 77.1396 142.511 76.334 141.835 75.0127H141.781V75.8291C141.781 76.6885 141.233 77.1719 140.46 77.1719ZM144.638 74.9482C146.346 74.9482 147.421 73.5303 147.421 71.2637C147.421 69.0078 146.346 67.5791 144.638 67.5791C142.984 67.5791 141.824 69.0508 141.824 71.2637C141.824 73.498 142.984 74.9482 144.638 74.9482ZM153.726 63.9697C152.899 63.9697 152.243 63.3252 152.243 62.5195C152.243 61.7031 152.899 61.0693 153.726 61.0693C154.564 61.0693 155.219 61.7031 155.219 62.5195C155.219 63.3252 154.564 63.9697 153.726 63.9697ZM153.726 77.1719C152.909 77.1719 152.394 76.6348 152.394 75.7646V66.752C152.394 65.8926 152.909 65.3447 153.726 65.3447C154.542 65.3447 155.069 65.8926 155.069 66.7627V75.7646C155.069 76.6348 154.542 77.1719 153.726 77.1719ZM162.76 77.1826C159.429 77.1826 157.281 74.9268 157.281 71.2744C157.281 67.6436 159.419 65.334 162.738 65.334C164.972 65.334 166.874 66.4834 167.422 68.084C167.508 68.3096 167.561 68.5352 167.561 68.7285C167.561 69.3945 167.056 69.8027 166.412 69.8027C165.875 69.8027 165.553 69.5771 165.241 69.04C164.672 67.998 163.92 67.5039 162.813 67.5039C161.095 67.5039 159.999 68.9326 159.999 71.2637C159.999 73.627 161.105 75.0234 162.803 75.0234C163.984 75.0234 164.715 74.4756 165.23 73.5625C165.596 72.9609 165.886 72.7354 166.466 72.7354C167.099 72.7354 167.594 73.165 167.594 73.8311C167.594 74.0352 167.54 74.2607 167.432 74.5186C166.799 76.0762 164.908 77.1826 162.76 77.1826Z" fill="#222326"/>
<path d="M46.1787 99.1035C45.6514 99.1035 45.3145 98.7812 45.3145 98.3345C45.3145 98.1147 45.3657 97.9536 45.4756 97.7339L49.5845 89.9702V89.9336H44.8164C44.3477 89.9336 44.0107 89.626 44.0107 89.1572C44.0107 88.6885 44.3477 88.3882 44.8164 88.3882H50.3682C51.042 88.3882 51.5034 88.7837 51.5034 89.4502C51.5034 89.7944 51.3936 90.0874 51.1372 90.5854L47.0283 98.5542C46.8232 98.957 46.5889 99.1035 46.1787 99.1035ZM58.1608 99.1035C57.6408 99.1035 57.26 98.7666 57.26 98.1733V96.9282H53.0925C52.4113 96.9282 51.9646 96.4961 51.9646 95.8662C51.9646 95.4561 52.0817 95.1118 52.3747 94.5845C53.1145 93.2588 54.3156 91.4497 55.5827 89.5894C56.2712 88.564 56.7326 88.2417 57.509 88.2417C58.4831 88.2417 59.0617 88.7544 59.0617 89.6333V95.3755H59.8015C60.2995 95.3755 60.5998 95.6978 60.5998 96.1519C60.5998 96.6133 60.2995 96.9282 59.7941 96.9282H59.0617V98.1733C59.0617 98.7666 58.6882 99.1035 58.1608 99.1035ZM57.2893 95.4194V89.8237H57.26C55.5827 92.2261 54.5354 93.8081 53.6784 95.3682V95.4194H57.2893ZM64.2689 99.1035C63.9174 99.1035 63.6244 98.8838 63.6244 98.5396C63.6244 98.3564 63.6757 98.2246 63.7709 98.0854L67.0302 93.354L70.2455 88.6445C70.4506 88.3369 70.6117 88.2344 70.9047 88.2344C71.2416 88.2344 71.5126 88.4761 71.5126 88.8057C71.5126 88.9668 71.4687 89.0986 71.3661 89.2451L68.2094 93.8447L64.8842 98.7153C64.6938 99.0083 64.5326 99.1035 64.2689 99.1035ZM63.932 93.8228C62.5258 93.8228 61.6615 92.7607 61.6615 91.0249C61.6615 89.2891 62.5404 88.2563 63.932 88.2563C65.331 88.2563 66.2099 89.2817 66.2099 91.0249C66.2099 92.7534 65.3383 93.8228 63.932 93.8228ZM63.932 92.7681C64.496 92.7681 64.8329 92.1895 64.8329 91.0249C64.8329 89.8677 64.4887 89.311 63.932 89.311C63.3754 89.311 63.0312 89.875 63.0312 91.0322C63.0312 92.1895 63.3754 92.7681 63.932 92.7681ZM71.2196 99.0889C69.8134 99.0889 68.9491 98.0342 68.9491 96.2983C68.9491 94.5552 69.828 93.5225 71.2196 93.5225C72.6112 93.5225 73.4901 94.5479 73.4901 96.291C73.4901 98.0269 72.6259 99.0889 71.2196 99.0889ZM71.2196 98.0342C71.7763 98.0342 72.1205 97.4556 72.1205 96.2983C72.1205 95.1411 71.7763 94.5771 71.2196 94.5771C70.663 94.5771 70.3188 95.1411 70.3188 96.2983C70.3188 97.4556 70.663 98.0342 71.2196 98.0342Z" fill="#5DC0BA"/>
</g>
<rect x="43.5859" y="117.957" width="141.5" height="8" rx="4" fill="#222326" fill-opacity="0.04"/>
<rect x="43.5859" y="117.957" width="111" height="8" rx="4" fill="url(#paint2_linear_43892_10725)"/>
<rect x="43.5859" y="133.957" width="150" height="8" rx="4" fill="#222326" fill-opacity="0.04"/>
<rect x="43.5859" y="133.957" width="30" height="8" rx="4" fill="url(#paint3_linear_43892_10725)"/>
<rect x="43.5859" y="149.957" width="150" height="8" rx="4" fill="#222326" fill-opacity="0.04"/>
<rect x="43.5859" y="149.957" width="21.03" height="8" rx="4" fill="url(#paint4_linear_43892_10725)"/>
</g>
<defs>
<filter id="filter0_dd_43892_10725" x="0.585938" y="0.957031" width="240" height="217" filterUnits="userSpaceOnUse" color-interpolation-filters="sRGB">
<feFlood flood-opacity="0" result="BackgroundImageFix"/>
<feColorMatrix in="SourceAlpha" type="matrix" values="0 0 0 0 0 0 0 0 0 0 0 0 0 0 0 0 0 0 127 0" result="hardAlpha"/>
<feOffset dx="2" dy="15"/>
<feGaussianBlur stdDeviation="15"/>
<feComposite in2="hardAlpha" operator="out"/>
<feColorMatrix type="matrix" values="0 0 0 0 0 0 0 0 0 0 0 0 0 0 0 0 0 0 0.1 0"/>
<feBlend mode="normal" in2="BackgroundImageFix" result="effect1_dropShadow_43892_10725"/>
<feColorMatrix in="SourceAlpha" type="matrix" values="0 0 0 0 0 0 0 0 0 0 0 0 0 0 0 0 0 0 127 0" result="hardAlpha"/>
<feOffset dx="2" dy="6"/>
<feGaussianBlur stdDeviation="6"/>
<feComposite in2="hardAlpha" operator="out"/>
<feColorMatrix type="matrix" values="0 0 0 0 0 0 0 0 0 0 0 0 0 0 0 0 0 0 0.01 0"/>
<feBlend mode="normal" in2="effect1_dropShadow_43892_10725" result="effect2_dropShadow_43892_10725"/>
<feBlend mode="normal" in="BackgroundImageFix" in2="effect2_dropShadow_43892_10725" result="BackgroundImageFix"/>
<feBlend mode="normal" in="SourceGraphic" in2="BackgroundImageFix" result="shape"/>
</filter>
<radialGradient id="paint0_radial_43892_10725" cx="0" cy="0" r="1" gradientUnits="userSpaceOnUse" gradientTransform="translate(118.586 94.457) rotate(90) scale(78.5 90)">
<stop stop-color="#F97E71"/>
<stop offset="0.95195" stop-color="#FEAE6C" stop-opacity="0"/>
</radialGradient>
<linearGradient id="paint1_linear_43892_10725" x1="189.695" y1="-3.55744" x2="76.6901" y2="139.971" gradientUnits="userSpaceOnUse">
<stop stop-color="white" stop-opacity="0"/>
<stop offset="1" stop-color="white"/>
</linearGradient>
<linearGradient id="paint2_linear_43892_10725" x1="154.586" y1="121.957" x2="43.6836" y2="125.248" gradientUnits="userSpaceOnUse">
<stop stop-color="#83E3DE"/>
<stop offset="1" stop-color="#5ED5ED"/>
</linearGradient>
<linearGradient id="paint3_linear_43892_10725" x1="43.5859" y1="137.957" x2="190.948" y2="137.957" gradientUnits="userSpaceOnUse">
<stop stop-color="#62A3FE"/>
<stop offset="1" stop-color="#7BB0FE"/>
</linearGradient>
<linearGradient id="paint4_linear_43892_10725" x1="184.897" y1="157.957" x2="43.5859" y2="157.957" gradientUnits="userSpaceOnUse">
<stop stop-color="#7B5CF4"/>
<stop offset="1" stop-color="#5653F3"/>
</linearGradient>
<clipPath id="clip0_43892_10725">
<rect width="150" height="75" fill="white" transform="translate(43.5859 27.957)"/>
</clipPath>
</defs>
</svg>
